<svg width="104" height="40" viewBox="0 0 104 40" fill="none" xmlns="http://www.w3.org/2000/svg">
    <path fill-rule="evenodd" clip-rule="evenodd"
        d="M88 28.7206C88 30.4899 86.8429 31.3292 84.8106 31.3292H80.9298V29.5587H84.8106C85.185 29.5587 85.4667 29.4965 85.5907 29.3708C85.7159 29.2465 85.8411 29.0626 85.8411 28.8437C85.8411 28.5976 85.7146 28.3476 85.5907 28.2544C85.4667 28.13 85.2463 28.0666 84.8719 28.0666C83.0261 28.0044 80.6793 28.13 80.6793 25.4904C80.6793 24.3092 81.462 23.0049 83.557 23.0049H87.5617V24.7741H83.87C83.4944 24.7741 83.2452 24.7742 83.0874 24.8985C82.8982 25.0863 82.7743 25.2715 82.7743 25.5525C82.7743 25.8621 82.9635 26.0486 83.1826 26.1406C83.4318 26.2028 83.6822 26.2649 83.9653 26.2649H85.0597C86.1868 26.2649 86.9055 26.5136 87.4064 26.919C87.7195 27.3335 87.9804 27.8645 87.9804 28.7064L88 28.7206ZM79.547 26.9074C79.0474 26.502 78.3274 26.2533 77.2003 26.2533H76.1072C75.8241 26.2533 75.5736 26.1911 75.3245 26.1289C75.104 26.037 74.9162 25.8505 74.9162 25.5409C74.9162 25.2599 74.9788 25.0746 75.2292 24.8868C75.3845 24.7625 75.635 24.7625 76.012 24.7625H79.7036V22.9932H75.6989C73.54 22.9932 72.8199 24.2975 72.8199 25.4788C72.8199 28.1184 75.1666 27.9927 77.0112 28.0549C77.3882 28.0549 77.6073 28.1184 77.7325 28.2427C77.859 28.336 77.9843 28.5859 77.9843 28.832C77.9843 29.0509 77.8577 29.2362 77.7325 29.3592C77.5447 29.4848 77.3255 29.547 76.9499 29.547H73.0704V31.3175H76.9499C78.9835 31.3175 80.1393 30.4795 80.1393 28.709C80.1523 27.8671 79.9045 27.3361 79.5653 26.8957L79.547 26.9074ZM71.8507 29.6143H67.1272V27.937H71.7581V26.2585H67.1272V24.7366H71.8507V22.9984H65.1575V31.3227H71.8507V29.6117V29.613V29.6143ZM62.9934 23.3973C62.3373 23.0554 61.5532 22.9945 60.5201 22.9945H55.9205V31.3189H57.9556V28.2751H60.1131C60.8345 28.2751 61.2389 28.3373 61.5533 28.6481C61.899 29.0522 61.8989 29.7646 61.8989 30.3241V31.3189H63.9026V29.7037C63.9026 28.959 63.8374 28.5872 63.5895 28.1818C63.4004 27.9331 63.0559 27.621 62.555 27.4669C63.1186 27.2791 63.9952 26.5667 63.9952 25.2612C64.0082 24.3027 63.6691 23.7717 63.0038 23.3961L62.9934 23.3973ZM51.6054 22.9958H45.1913L42.5967 25.73L40.1561 22.9958H32.0514V31.3201H40.0296L42.5967 28.5885L45.0687 31.3201H48.9495V28.5251H51.4815C53.2021 28.5251 54.954 28.0588 54.954 25.7313C54.9409 23.4647 53.1538 22.9984 51.5884 22.9984L51.6054 22.9958ZM61.3628 26.4411C61.0498 26.5667 60.7667 26.5667 60.3923 26.5667L57.9516 26.6289V24.7327H60.3923C60.7667 24.7327 61.1124 24.7327 61.3628 24.8881C61.612 25.0124 61.7685 25.2611 61.7685 25.6044C61.7815 25.967 61.625 26.252 61.3641 26.4333L61.3628 26.4411ZM51.6054 26.8555H48.9482V24.7418H51.6054C52.3254 24.7418 52.795 25.0215 52.795 25.7391C52.795 26.4385 52.3255 26.853 51.608 26.853L51.6054 26.8555ZM43.883 27.1664L46.9811 23.9051V30.6156L43.8764 27.1703L43.883 27.1664ZM39.0043 29.6143H34.0304V27.937H38.472V26.2585H34.0304V24.7366H39.0668L41.2871 27.1599L38.9912 29.6208L39.0043 29.6143ZM82.4299 16.9731H79.551L75.7667 10.7289V16.9731H71.6968L70.9128 15.1417H66.7215L65.9389 16.9731H63.5921C62.6216 16.9731 61.3706 16.7555 60.6506 16.0418C59.9918 15.3269 59.6161 14.3645 59.6161 12.8737C59.6474 11.6303 59.8065 10.5126 60.7131 9.61113C61.3067 8.95835 62.4025 8.64878 63.7787 8.64878H65.6871V10.4504H63.7787C63.0586 10.4504 62.6216 10.5735 62.2146 10.9154C61.8402 11.2884 61.6824 11.9412 61.6824 12.8116C61.6824 13.7118 61.8402 14.3645 62.2146 14.7997C62.4963 15.0782 63.0586 15.2038 63.5934 15.2038H64.4974L67.3777 8.64878H70.3493L73.7291 16.5068V8.64878H76.8259L80.361 14.4267V8.64878H82.426V16.9899L82.4299 16.9731ZM58.6103 8.6449H56.5767V16.9692H58.6103V8.64103V8.6449ZM54.3578 9.02052C53.7003 8.6488 52.979 8.64878 51.9484 8.64878H47.3503V16.9731H49.3213V13.9604H51.4789C52.1976 13.9604 52.6686 14.0226 52.979 14.3024C53.326 14.7389 53.2621 15.4525 53.2621 15.9188V16.9731H55.3257V15.3269C55.3257 14.6132 55.2644 14.2389 54.9513 13.8348C54.7635 13.5887 54.4191 13.3077 53.9821 13.1224C54.5444 12.8738 55.4209 12.2197 55.4209 10.9154C55.434 9.95694 55.0165 9.42591 54.3643 9.0244L54.3578 9.02052ZM45.9179 15.2634H41.2244V13.5861H45.8553V11.8777H41.2244V10.387H45.9179V8.64747H39.1921V16.9718H45.9179V15.2479V15.2492V15.2634ZM37.6867 8.6449H34.4008L31.9301 14.2972L29.3017 8.6449H26.0783V16.5029L22.6358 8.6449H19.6629L16.0652 16.9692H18.2241L18.9741 15.1378H23.198L23.9494 16.9692H28.0467V10.4465L30.9896 16.9692H32.7089L35.6518 10.4465V16.9692H37.6841V8.64229L37.6711 8.64103L37.6867 8.6449ZM70.194 13.3594L68.8165 10.0683L67.439 13.3594H70.2044H70.194ZM52.7925 12.0383C52.4794 12.2236 52.1963 12.2236 51.7906 12.2236H49.3187V10.3921H51.7906C52.135 10.3921 52.542 10.3921 52.7925 10.5165C53.0416 10.6706 53.1668 10.9206 53.1668 11.2936C53.1668 11.6174 53.0363 11.9282 52.7885 12.0319L52.7925 12.0383ZM19.6982 13.3594L21.1057 10.0683L22.4845 13.3594H19.689H19.6929H19.6982Z"
        fill="#BEBEBE" />
</svg>