<svg width="116" height="40" viewBox="0 0 116 40" fill="none" xmlns="http://www.w3.org/2000/svg">
<path d="M45.4356 19.031C45.4356 12.9541 37.5664 8 27.8584 8C18.1515 8 10.2823 12.9541 10.2823 19.031C10.2823 19.1885 10.2803 19.6222 10.2803 19.6773C10.2803 26.1243 17.1584 31.346 27.8564 31.346C38.6207 31.346 45.4356 26.1262 45.4356 19.6782C45.4356 19.4533 45.4356 19.3233 45.4356 19.031Z" fill="#393B43"/>
<path d="M44.7636 19.026C44.7636 24.7555 37.1971 29.4003 27.863 29.4003C18.529 29.4003 10.9624 24.7555 10.9624 19.026C10.9624 13.2956 18.529 8.65088 27.863 8.65088C37.1971 8.65088 44.7636 13.2956 44.7636 19.026Z" fill="#27282D"/>
<path d="M22.2503 15.7528C22.2414 15.7689 22.0732 15.9369 22.182 16.0707C22.4491 16.3981 23.273 16.5851 24.1058 16.4057C24.6013 16.2994 25.2373 15.8145 25.8535 15.3447C26.5202 14.836 27.1829 14.3273 27.8485 14.1242C28.5528 13.9087 29.0048 14.0018 29.3035 14.0881C29.6309 14.1811 30.0156 14.388 30.6299 14.8303C31.7861 15.6645 36.4358 19.5595 37.239 20.2324C37.8868 19.9514 40.7621 18.7642 44.67 17.9375C44.3308 15.9388 43.0627 14.109 41.1409 12.6114C38.4625 13.6914 35.1886 14.2552 31.9879 12.7547C31.9711 12.748 30.2382 11.9613 28.53 12.0002C25.989 12.0562 24.8892 13.1115 23.725 14.2276L22.2503 15.7528Z" fill="#BEBEBE"/>
<path d="M37.0506 20.6557C36.9962 20.6092 31.5829 16.0641 30.3574 15.1805C29.6472 14.6699 29.2526 14.539 28.8381 14.4887C28.6225 14.4611 28.3238 14.5 28.1161 14.5551C27.5454 14.7041 26.7996 15.1824 26.1369 15.6864C25.4515 16.2103 24.8046 16.7038 24.2052 16.8328C23.4387 16.998 22.503 16.8025 22.0757 16.5263C21.9026 16.4143 21.781 16.2852 21.7226 16.1543C21.5643 15.8031 21.8551 15.5222 21.9036 15.4757L23.3971 13.9249C23.5712 13.7588 23.7453 13.5927 23.9243 13.4286C23.4426 13.4893 22.9965 13.607 22.5633 13.7228C22.0223 13.8689 21.502 14.0075 20.9748 14.0075C20.7553 14.0075 19.5773 13.8224 19.3537 13.7636C18.0016 13.4086 16.8147 13.0632 15.0433 12.2688C12.9197 13.7864 11.4993 15.6826 11.0889 17.7715C11.3945 17.8493 11.8861 17.9898 12.0928 18.0334C16.8978 19.0584 18.3943 20.1147 18.6663 20.3358C18.9601 20.0217 19.3844 19.8233 19.8582 19.8233C20.3893 19.8243 20.869 20.0796 21.1598 20.4763C21.4348 20.2675 21.8146 20.09 22.3052 20.09C22.5277 20.09 22.7592 20.1299 22.9926 20.2058C23.5346 20.3842 23.8145 20.7306 23.9599 21.0438C24.1419 20.9651 24.3654 20.9072 24.6285 20.9081C24.8877 20.9081 25.1567 20.9641 25.4277 21.0771C26.314 21.4415 26.4514 22.2767 26.3713 22.9059C26.4346 22.8993 26.4979 22.8964 26.5622 22.8964C27.6126 22.8974 28.4672 23.7164 28.4672 24.7253C28.4672 25.0375 28.3841 25.3308 28.2387 25.588C28.5246 25.7427 29.2535 26.091 29.8935 26.0131C30.4048 25.9514 30.5987 25.7835 30.6679 25.6895C30.7154 25.625 30.7659 25.549 30.7194 25.4949L29.3633 24.0495C29.3633 24.0495 29.1398 23.8464 29.214 23.7686C29.2901 23.6879 29.4286 23.8037 29.5255 23.8815C30.2159 24.4348 31.0586 25.2691 31.0586 25.2691C31.0725 25.2786 31.1289 25.3839 31.4404 25.438C31.7085 25.4836 32.1832 25.457 32.5116 25.1979C32.5947 25.1324 32.6778 25.0508 32.747 24.9663C32.7421 24.9701 32.7371 24.9768 32.7322 24.9787C33.0784 24.5525 32.6936 24.1217 32.6936 24.1217L31.1101 22.4162C31.1101 22.4162 30.8846 22.215 30.9607 22.1343C31.0299 22.0641 31.1753 22.1704 31.2752 22.2492C31.7757 22.6516 32.4839 23.333 33.1634 23.9708C33.295 24.0647 33.8924 24.4187 34.6817 23.9205C35.1614 23.6187 35.2573 23.2485 35.2435 22.9685C35.2108 22.5984 34.9092 22.3346 34.9092 22.3346L32.747 20.2485C32.747 20.2485 32.5185 20.0616 32.5996 19.9667C32.6659 19.8869 32.8143 20.0018 32.9112 20.0796C33.5996 20.6329 35.465 22.2738 35.465 22.2738C35.4917 22.2919 36.1356 22.7322 36.9319 22.2454C37.2167 22.0707 37.3987 21.8078 37.4145 21.5013C37.4412 20.9708 37.0506 20.6557 37.0506 20.6557Z" fill="#BEBEBE"/>
<path d="M26.562 23.3006C26.2267 23.2968 25.8598 23.4876 25.8123 23.46C25.7856 23.443 25.8321 23.3139 25.8637 23.2389C25.8964 23.1649 26.3375 21.8903 25.2614 21.4471C24.4375 21.1083 23.934 21.4898 23.7609 21.6625C23.7154 21.7081 23.6957 21.7043 23.6897 21.6464C23.6739 21.4167 23.5661 20.796 22.8559 20.5872C21.8401 20.2892 21.1863 20.9697 21.0202 21.2155C20.946 20.6594 20.4574 20.2285 19.857 20.2275C19.2052 20.2275 18.677 20.7334 18.677 21.3588C18.676 21.9833 19.2042 22.4901 19.856 22.4901C20.1725 22.4911 20.4593 22.3696 20.671 22.175C20.6779 22.1807 20.6809 22.1912 20.6769 22.213C20.6275 22.492 20.5365 23.5094 21.6463 23.9241C22.0913 24.0893 22.4702 23.9659 22.7837 23.7552C22.8767 23.6916 22.8925 23.7182 22.8787 23.8027C22.8391 24.0646 22.8895 24.6246 23.7085 24.9425C24.3307 25.1854 24.6996 24.9368 24.9409 24.7233C25.0458 24.6312 25.0744 24.6454 25.0794 24.7878C25.1091 25.5451 25.7648 26.1459 26.5601 26.1468C27.38 26.1468 28.0447 25.511 28.0447 24.7252C28.0457 23.9384 27.382 23.3091 26.562 23.3006Z" fill="#BEBEBE"/>
<path d="M26.5615 26.0451C25.8187 26.0442 25.2144 25.4899 25.1867 24.7848C25.1857 24.724 25.1788 24.5627 25.0374 24.5627C24.978 24.5627 24.9276 24.5969 24.8692 24.6472C24.706 24.7924 24.4983 24.9404 24.1946 24.9404C24.0562 24.9404 23.9068 24.9091 23.7496 24.8474C22.9642 24.5428 22.9533 24.0255 22.985 23.8177C22.9939 23.7617 22.9969 23.7038 22.9573 23.6592L22.9088 23.6184H22.8604C22.8208 23.6184 22.7793 23.6336 22.7239 23.6715C22.4964 23.8243 22.2788 23.8984 22.0572 23.8984C21.9356 23.8984 21.8109 23.8746 21.6853 23.8281C20.6527 23.4428 20.7348 22.507 20.7852 22.2261C20.7922 22.1682 20.7773 22.1246 20.7398 22.0951L20.6666 22.0372L20.5983 22.0999C20.3975 22.2859 20.1334 22.3884 19.8575 22.3884C19.265 22.3875 18.7833 21.9262 18.7843 21.3587C18.7843 20.7902 19.267 20.3299 19.8585 20.3299C20.3936 20.3299 20.8486 20.7162 20.9168 21.2286L20.9534 21.5048L21.1116 21.2714C21.1295 21.2438 21.5627 20.6146 22.3599 20.6156C22.5112 20.6156 22.6675 20.6383 22.8257 20.6858C23.4607 20.8718 23.5686 21.4242 23.5854 21.6548C23.5962 21.7886 23.6961 21.7952 23.7159 21.7952C23.7703 21.7952 23.8109 21.762 23.8396 21.7326C23.9592 21.613 24.2204 21.4137 24.6289 21.4137C24.8158 21.4137 25.0156 21.4564 25.2203 21.5409C26.2302 21.9566 25.7723 23.1875 25.7673 23.2008C25.6803 23.4048 25.6763 23.495 25.7584 23.5472L25.798 23.5652H25.8276C25.8731 23.5652 25.9295 23.5463 26.0225 23.5159C26.16 23.4703 26.3677 23.402 26.5615 23.402H26.5625C27.3222 23.4105 27.9403 24.0037 27.9403 24.725C27.9394 25.4529 27.3212 26.0451 26.5615 26.0451ZM37.2596 20.1116C35.592 18.7155 31.7385 15.501 30.695 14.7484C30.0985 14.3185 29.692 14.0907 29.335 13.9892C29.1747 13.9427 28.9522 13.8895 28.6663 13.8895C28.4013 13.8895 28.1164 13.9351 27.8187 14.0262C27.1441 14.2312 26.4725 14.7437 25.8217 15.2391L25.7881 15.2647C25.1828 15.7269 24.5576 16.2043 24.0839 16.3059C23.8772 16.3505 23.6645 16.3732 23.4528 16.3732C22.9217 16.3732 22.4459 16.2261 22.2669 16.0078C22.2372 15.9708 22.256 15.9129 22.3253 15.8285L22.3352 15.8171L23.802 14.3005C24.9503 13.1977 26.0353 12.1575 28.5338 12.1024C28.5743 12.1015 28.6169 12.1006 28.6584 12.1006C30.2133 12.1015 31.7671 12.7696 31.9412 12.8465C33.3991 13.5289 34.9045 13.8753 36.4169 13.8762C37.9935 13.8772 39.6205 13.5023 41.3307 12.7469C41.1398 12.5931 40.941 12.4432 40.7362 12.2961C39.2338 12.9205 37.8026 13.2366 36.4218 13.2366C35.0104 13.2347 33.6019 12.9101 32.233 12.2695C32.1608 12.2363 30.4447 11.4599 28.6584 11.459C28.6119 11.459 28.5645 11.4599 28.518 11.4609C26.4201 11.5074 25.2381 12.223 24.4429 12.8494C23.6704 12.8674 23.0028 13.0458 22.4103 13.2053C21.8802 13.3457 21.4232 13.4682 20.9771 13.4682C20.7932 13.4682 20.4628 13.452 20.4331 13.4511C19.9208 13.4359 17.3363 12.8285 15.281 12.0816C15.0713 12.2239 14.8695 12.371 14.6727 12.521C16.82 13.3657 19.4332 14.0186 20.2581 14.0699C20.4875 14.085 20.7318 14.1097 20.9761 14.1097C21.5221 14.1097 22.0661 13.9636 22.5933 13.8222C22.9039 13.7377 23.2471 13.6466 23.6091 13.5801C23.5122 13.6713 23.4162 13.7633 23.3193 13.8554L21.8297 15.4023C21.712 15.5162 21.4568 15.8199 21.625 16.1929C21.6922 16.3438 21.8278 16.4881 22.0177 16.6105C22.3718 16.8402 23.0077 16.9949 23.5992 16.9958C23.8228 16.9958 24.0354 16.974 24.2303 16.9322C24.8544 16.7975 25.5101 16.2964 26.2045 15.7668C26.7574 15.3454 27.5427 14.8101 28.1451 14.6526C28.3132 14.6089 28.5199 14.5814 28.6851 14.5814C28.7346 14.5824 28.7821 14.5833 28.8256 14.5899C29.2232 14.6374 29.607 14.7674 30.2934 15.2619C31.5169 16.1436 36.9302 20.6877 36.9836 20.7332C36.9866 20.7361 37.3318 21.0208 37.308 21.4963C37.2952 21.7611 37.1419 21.9964 36.8758 22.1597C36.6444 22.3001 36.406 22.3713 36.1656 22.3713C35.8036 22.3713 35.5544 22.2081 35.5376 22.1976C35.5178 22.1815 33.6632 20.5501 32.9808 20.0015C32.872 19.9151 32.7661 19.8373 32.6593 19.8373C32.6029 19.8373 32.5525 19.8601 32.5179 19.9019C32.411 20.029 32.5307 20.2046 32.6731 20.3204L34.8393 22.4093C34.8422 22.4121 35.1093 22.6522 35.138 22.973C35.1558 23.3194 34.9827 23.6089 34.6236 23.8348C34.3684 23.9961 34.1093 24.0787 33.8561 24.0787C33.5238 24.0787 33.2894 23.9325 33.2379 23.8984L32.9273 23.6042C32.3596 23.0679 31.7731 22.5137 31.3438 22.1701C31.239 22.0866 31.1272 22.0097 31.0204 22.0097C30.968 22.0097 30.9205 22.0278 30.8839 22.0648C30.8354 22.117 30.8008 22.2109 30.9234 22.3666C30.9729 22.4302 31.0322 22.4833 31.0322 22.4833L32.6138 24.1878C32.6267 24.203 32.9392 24.5599 32.6494 24.9148L32.593 24.9822C32.5465 25.0325 32.4951 25.079 32.4466 25.1189C32.1766 25.3314 31.8166 25.3542 31.6742 25.3542C31.598 25.3542 31.5238 25.3476 31.4605 25.3362C31.3042 25.3096 31.1994 25.2679 31.148 25.21L31.1292 25.191C31.0431 25.1056 30.2459 24.3245 29.5862 23.7968C29.5001 23.7266 29.3913 23.6383 29.2796 23.6383C29.2242 23.6383 29.1747 23.6592 29.1362 23.7C29.0056 23.8367 29.2014 24.0417 29.2845 24.1176L30.6336 25.544C30.6317 25.5564 30.6148 25.5858 30.5822 25.6314C30.5337 25.6949 30.3705 25.8525 29.8809 25.9113C29.8226 25.9189 29.7622 25.9218 29.7019 25.9218C29.1975 25.9218 28.6594 25.6864 28.3825 25.5459C28.5091 25.2897 28.5743 25.0078 28.5743 24.7259C28.5743 23.6601 27.6733 22.7937 26.5635 22.7937C26.5398 22.7937 26.5151 22.7937 26.4913 22.7946C26.5269 22.3087 26.4557 21.3881 25.4706 20.9828C25.1867 20.8652 24.9038 20.8054 24.6298 20.8054C24.4142 20.8054 24.2075 20.8405 24.0136 20.9117C23.8089 20.5311 23.4706 20.254 23.0285 20.1097C22.7842 20.029 22.5409 19.9873 22.3065 19.9873C21.896 19.9873 21.5192 20.1031 21.1819 20.3327C20.8594 19.9484 20.3718 19.7196 19.8585 19.7196C19.4094 19.7196 18.9772 19.8924 18.6577 20.197C18.2373 19.8895 16.5727 18.874 12.1159 17.9031C11.9002 17.8566 11.4057 17.72 11.102 17.6355C11.0516 17.8661 11.013 18.1005 10.9873 18.3368C10.9873 18.3368 11.8092 18.5257 11.9715 18.5608C16.5242 19.5308 18.0277 20.5396 18.2828 20.7304C18.1958 20.9287 18.1513 21.1423 18.1513 21.3587C18.1503 22.2603 18.9159 22.9958 19.8565 22.9968C19.9623 22.9968 20.0672 22.9873 20.169 22.9692C20.3115 23.6336 20.7645 24.1375 21.4559 24.3957C21.6586 24.4697 21.8634 24.5086 22.0641 24.5086C22.1937 24.5086 22.3253 24.4934 22.4529 24.4621C22.5805 24.7734 22.8683 25.1616 23.5112 25.4121C23.7367 25.4994 23.9622 25.545 24.1808 25.545C24.3598 25.545 24.5349 25.5146 24.7021 25.4558C25.0097 26.1761 25.7436 26.6525 26.5606 26.6525C27.1026 26.6535 27.6228 26.4419 28.0027 26.067C28.3271 26.2407 29.0125 26.5538 29.7049 26.5548C29.7949 26.5548 29.879 26.5481 29.963 26.5387C30.6514 26.4561 30.9709 26.197 31.1183 25.9967C31.145 25.9616 31.1687 25.9246 31.1895 25.8857C31.3517 25.9313 31.5298 25.9673 31.7345 25.9683C32.1104 25.9683 32.4714 25.8449 32.8354 25.5896C33.1934 25.3428 33.4476 24.9869 33.4842 24.6842C33.4852 24.6794 33.4862 24.6756 33.4872 24.6709C33.6068 24.6946 33.7315 24.707 33.8551 24.707C34.2418 24.707 34.6217 24.5912 34.9856 24.3625C35.6869 23.9221 35.8086 23.346 35.7977 22.9683C35.9193 22.993 36.045 23.0053 36.1696 23.0053C36.5326 23.0053 36.8896 22.9009 37.2289 22.6931C37.6641 22.4264 37.9252 22.0183 37.9648 21.5428C37.9925 21.2201 37.9094 20.8946 37.7314 20.6146C38.9064 20.1287 41.5918 19.1891 44.7539 18.5048C44.7351 18.2695 44.6995 18.0369 44.656 17.8054C40.8302 18.6206 37.9747 19.806 37.2596 20.1116Z" fill="#393B43"/>
<path d="M103.196 16.3782C102.888 16.7701 102.448 16.9656 101.872 16.9656C101.298 16.9656 100.855 16.7701 100.545 16.3782C100.234 15.9862 100.08 15.4281 100.08 14.7059C100.08 13.9837 100.234 13.4275 100.545 13.0374C100.855 12.6483 101.298 12.4528 101.872 12.4528C102.448 12.4528 102.888 12.6483 103.196 13.0374C103.503 13.4275 103.659 13.9837 103.659 14.7059C103.659 15.4281 103.503 15.9862 103.196 16.3782ZM104.768 12.002C104.133 11.2399 103.171 10.8584 101.878 10.8584C100.587 10.8584 99.6241 11.2399 98.9901 12.002C98.3551 12.7651 98.0376 13.6657 98.0376 14.7059C98.0376 15.7641 98.3551 16.6686 98.9901 17.4212C99.6241 18.1709 100.587 18.5477 101.878 18.5477C103.171 18.5477 104.133 18.1709 104.768 17.4212C105.403 16.6686 105.72 15.7641 105.72 14.7059C105.72 13.6657 105.403 12.7651 104.768 12.002Z" fill="#BEBEBE"/>
<path d="M87.5542 15.487C87.5413 16.12 87.3524 16.5566 86.9894 16.7948C86.6264 17.034 86.2298 17.1545 85.7995 17.1545C85.5275 17.1545 85.2971 17.0814 85.1072 16.9381C84.9173 16.7939 84.8233 16.5604 84.8233 16.2368C84.8233 15.8752 84.9776 15.6076 85.2882 15.4339C85.4731 15.3333 85.7738 15.246 86.1952 15.1767L86.6442 15.097C86.8678 15.0561 87.0438 15.0125 87.1724 14.966C87.303 14.9204 87.4286 14.8597 87.5542 14.7838V15.487ZM88.5542 11.3643C87.9103 11.052 87.1744 10.8936 86.3455 10.8936C85.0716 10.8936 84.1725 11.2124 83.6493 11.8493C83.3199 12.2574 83.1359 12.7765 83.0924 13.4095H84.9954C85.0429 13.1305 85.1359 12.9094 85.2763 12.7461C85.4731 12.525 85.8065 12.414 86.2783 12.414C86.6996 12.414 87.0191 12.469 87.2367 12.5838C87.4533 12.6958 87.5621 12.9008 87.5621 13.1969C87.5621 13.4408 87.4217 13.6193 87.1368 13.7351C86.9785 13.8015 86.7164 13.8565 86.3485 13.9011L85.6739 13.9809C84.9084 14.0729 84.3258 14.2286 83.9321 14.4459C83.2111 14.8445 82.8521 15.487 82.8521 16.3772C82.8521 17.0625 83.0746 17.593 83.5227 17.9669C83.9697 18.3409 84.5385 18.4975 85.2249 18.5288C89.5284 18.7129 89.48 16.3526 89.5195 15.861V13.1438C89.5195 12.2725 89.1971 11.6794 88.5542 11.3643Z" fill="#BEBEBE"/>
<path d="M78.7406 12.5119C79.2332 12.5119 79.5942 12.6581 79.8276 12.9494C79.9878 13.1649 80.0877 13.4088 80.1263 13.6783H82.2499C82.1332 12.6505 81.7583 11.933 81.1253 11.5258C80.4903 11.1215 79.6782 10.9175 78.6842 10.9175C77.5141 10.9175 76.5962 11.262 75.9326 11.9501C75.2679 12.6391 74.9355 13.6014 74.9355 14.839C74.9355 15.9342 75.2362 16.8273 75.8376 17.5163C76.439 18.2034 77.3776 18.548 78.6535 18.548C79.9305 18.548 80.8938 18.1361 81.5437 17.3104C81.9502 16.7988 82.1787 16.256 82.2271 15.6827H80.1115C80.0679 16.0614 79.9443 16.3708 79.7396 16.609C79.5358 16.8463 79.1916 16.9659 78.705 16.9659C78.0205 16.9659 77.5537 16.6669 77.3054 16.0652C77.1699 15.7454 77.1017 15.3211 77.1017 14.7925C77.1017 14.2383 77.1699 13.7941 77.3054 13.4591C77.5636 12.8289 78.0423 12.5119 78.7406 12.5119Z" fill="#BEBEBE"/>
<path d="M74.3666 10.9175C70.0057 10.9175 70.2639 14.6226 70.2639 14.6226V18.3857H72.2421V14.8561C72.2421 14.2781 72.3182 13.8491 72.4696 13.5711C72.7406 13.0775 73.2717 12.8298 74.063 12.8298C74.1223 12.8298 74.2005 12.8327 74.2974 12.8374C74.3933 12.8412 74.5031 12.8498 74.6287 12.864V10.9317C74.5407 10.926 74.4843 10.9241 74.4596 10.9213C74.4339 10.9194 74.4032 10.9175 74.3666 10.9175Z" fill="#BEBEBE"/>
<path d="M64.4369 12.8839C64.7158 12.6097 65.1065 12.472 65.6099 12.472C66.0748 12.472 66.4625 12.6011 66.7761 12.8612C67.0886 13.1193 67.2637 13.4999 67.2993 14H63.9136C63.9839 13.5303 64.1589 13.1592 64.4369 12.8839ZM67.0965 16.4192C67.0135 16.5331 66.9244 16.6308 66.8255 16.7068C66.5466 16.9279 66.1668 16.9943 65.7197 16.9943C65.2964 16.9943 64.966 16.9326 64.6663 16.7514C64.1728 16.461 63.8948 15.9684 63.8652 15.2443H69.3408C69.3487 14.6217 69.3269 14.1452 69.2745 13.8131C69.1835 13.2484 68.9837 12.7501 68.6761 12.3221C68.3349 11.8362 67.9007 11.4803 67.3764 11.2544C66.8532 11.0295 66.2647 10.9175 65.6099 10.9175C64.5071 10.9175 63.612 11.2506 62.9216 11.9168C62.2312 12.584 61.885 13.5416 61.885 14.7906C61.885 16.125 62.2678 17.0873 63.0333 17.6786C63.7979 18.2699 64.6812 18.5669 65.6811 18.5669C66.8928 18.5669 67.8354 18.2158 68.509 17.5144C68.872 17.1452 69.0994 16.7798 69.1954 16.4192H67.0965Z" fill="#BEBEBE"/>
<path d="M61.0913 18.3847H59.2832V14.0171C59.2832 13.6185 59.1467 12.6694 57.9539 12.6694C57.1587 12.6694 56.584 13.2199 56.584 14.0171V18.3847H54.7749V14.0171C54.7749 13.6185 54.6513 12.6694 53.4595 12.6694C52.6504 12.6694 52.0886 13.2199 52.0886 14.0171V18.3847H50.2805V14.0589C50.2805 12.2557 51.5268 10.8918 53.4595 10.8918C54.4189 10.8918 55.1993 11.2791 55.7067 11.8988C56.2408 11.2791 57.035 10.8918 57.9539 10.8918C59.9271 10.8918 61.0913 12.2006 61.0913 14.0589V18.3847Z" fill="#BEBEBE"/>
<path d="M95.0754 16.3936C94.7866 16.7913 94.3623 16.9896 93.8064 16.9896C93.2495 16.9896 92.8351 16.7894 92.5621 16.3908C92.2891 15.9903 92.1526 15.4094 92.1526 14.7432C92.1526 14.1254 92.2862 13.6081 92.5552 13.1915C92.8232 12.7748 93.2446 12.566 93.8202 12.566C94.1971 12.566 94.5284 12.6799 94.8143 12.9096C95.2782 13.2892 95.5106 13.9697 95.5106 14.8523C95.5106 15.4825 95.3652 15.9969 95.0754 16.3936ZM97.4492 8.63692C97.4492 8.63692 95.4552 8.43287 95.4552 9.9694L95.4542 12.0032C95.2337 11.6635 94.9468 11.3968 94.5927 11.206C94.2396 11.0143 93.8351 10.9175 93.3781 10.9175C92.39 10.9175 91.6017 11.2706 91.0102 11.9767C90.4188 12.6828 90.125 13.7002 90.125 14.9311C90.125 15.9988 90.4247 16.8738 91.0241 17.5562C91.6245 18.2367 92.8015 18.5357 93.846 18.5357C97.4898 18.5357 97.4472 15.5366 97.4472 15.5366L97.4492 8.63692Z" fill="#BEBEBE"/>
<path d="M55.5751 25.2985C55.5751 24.5829 55.4297 24.0324 55.1379 23.6461C54.8472 23.2618 54.4307 23.0672 53.8867 23.0672C53.3645 23.0672 52.956 23.2618 52.6642 23.6461C52.3942 23.9954 52.2587 24.5477 52.2587 25.2985C52.2587 25.9989 52.4031 26.5199 52.6949 26.8692C52.9847 27.2554 53.4031 27.4481 53.9451 27.4481C54.4495 27.4481 54.8472 27.2554 55.1379 26.8692C55.4297 26.4838 55.5751 25.9619 55.5751 25.2985ZM52.2587 30.4367C52.2587 30.6929 52.1618 30.9141 51.9659 31.0972C51.7731 31.2814 51.5406 31.3734 51.2686 31.3734H50.2805V24.7746C50.2805 23.4914 50.7306 22.6885 51.4724 22.1447C51.963 21.786 52.6929 21.4434 54.0618 21.4434C54.9856 21.4434 56.0677 21.7879 56.6522 22.4712C57.308 23.2399 57.581 24.0969 57.581 25.2159C57.581 26.3737 57.2902 27.3076 56.7096 28.0261C56.128 28.7246 55.3803 29.0719 54.4683 29.0719C53.9837 29.0719 53.5574 28.9894 53.1894 28.8252C52.7997 28.6411 52.4911 28.3563 52.2587 27.9701V30.4367Z" fill="#BEBEBE"/>
<path d="M67.4352 25.2994C67.4352 26.5654 67.817 27.2668 68.5786 27.4054C69.3392 27.5411 69.902 27.3712 70.264 26.8948C70.4361 26.6945 70.5588 26.3766 70.6359 25.9467C70.7111 25.5158 70.717 25.0887 70.6498 24.6673C70.5845 24.244 70.4263 23.8682 70.178 23.5379C69.9317 23.2086 69.5687 23.0425 69.093 23.0425C68.4451 23.0425 68.0079 23.2731 67.7785 23.7296C67.549 24.189 67.4352 24.7119 67.4352 25.2994ZM70.6933 28.4636V27.9976C70.3511 28.512 69.8872 28.8309 69.3066 28.9599C68.726 29.0881 68.1494 29.0425 67.5796 28.8214C67.007 28.6021 66.5164 28.194 66.1069 27.598C65.6974 27.0001 65.4937 26.2162 65.4937 25.2434C65.4937 24.1074 65.7647 23.1849 66.3067 22.4788C66.8497 21.7727 67.7221 21.45 68.9218 21.4187C70.1038 21.3883 70.7912 21.6455 71.4648 22.1343C72.2007 22.6705 72.6359 23.4924 72.6359 24.7765V28.6581C72.6389 29.8929 71.7408 32.182 68.9218 31.9884C67.1751 31.8669 66.2058 31.1788 65.6648 29.6214H67.7508C67.9031 29.8777 68.1355 30.0741 68.451 30.2108C68.7636 30.3503 69.0801 30.3864 69.3917 30.3218C69.7062 30.2573 69.992 30.0779 70.2512 29.7856C70.5074 29.4924 70.6547 29.051 70.6933 28.4636Z" fill="#BEBEBE"/>
<path d="M62.8005 26.0654C62.7877 26.6984 62.5988 27.134 62.2367 27.3732C61.8738 27.6114 61.4771 27.731 61.0469 27.731C60.7739 27.731 60.5434 27.6589 60.3545 27.5156C60.1646 27.3723 60.0696 27.1378 60.0696 26.8142C60.0696 26.4526 60.2249 26.185 60.5355 26.0122C60.7205 25.9107 61.0212 25.8234 61.4415 25.7541L61.8906 25.6744C62.1151 25.6336 62.2911 25.5899 62.4187 25.5434C62.5493 25.4979 62.6749 25.4381 62.8005 25.3621V26.0654ZM63.8005 21.9427C63.1566 21.6304 62.4207 21.4719 61.5928 21.4719C60.3179 21.4719 59.4198 21.7908 58.8956 22.4276C58.5672 22.8348 58.3823 23.3539 58.3397 23.9879H60.2437C60.2902 23.7079 60.3832 23.4868 60.5236 23.3235C60.7205 23.1024 61.0538 22.9923 61.5246 22.9923C61.9479 22.9923 62.2664 23.0474 62.483 23.1613C62.6996 23.2742 62.8094 23.4792 62.8094 23.7753C62.8094 24.0183 62.668 24.1976 62.3841 24.3134C62.2269 24.3799 61.9638 24.4349 61.5958 24.4795L60.9213 24.5583C60.1557 24.6513 59.5731 24.8069 59.1795 25.0233C58.4584 25.4219 58.0984 26.0654 58.0984 26.9547C58.0984 27.6399 58.3219 28.1704 58.77 28.5443C59.2171 28.9173 59.7858 29.0758 60.4722 29.1062C64.7738 29.2903 64.7263 26.929 64.7659 26.4384V23.7212C64.7659 22.85 64.4444 22.2577 63.8005 21.9427Z" fill="#BEBEBE"/>
<path d="M78.549 26.9148C78.2414 27.3077 77.8003 27.5032 77.2256 27.5032C76.6499 27.5032 76.2068 27.3077 75.8982 26.9148C75.5867 26.5238 75.4324 25.9667 75.4324 25.2445C75.4324 24.5222 75.5867 23.9661 75.8982 23.576C76.2068 23.186 76.6499 22.9923 77.2256 22.9923C77.8003 22.9923 78.2414 23.186 78.549 23.576C78.8566 23.9661 79.0109 24.5222 79.0109 25.2445C79.0109 25.9667 78.8566 26.5238 78.549 26.9148ZM80.1216 22.5406C79.4867 21.7775 78.5233 21.397 77.2305 21.397C75.9408 21.397 74.9764 21.7775 74.3424 22.5406C73.7074 23.3027 73.3899 24.2034 73.3899 25.2445C73.3899 26.3027 73.7074 27.2062 74.3424 27.9588C74.9764 28.7086 75.9408 29.0853 77.2305 29.0853C78.5233 29.0853 79.4867 28.7086 80.1216 27.9588C80.7557 27.2062 81.0712 26.3027 81.0712 25.2445C81.0712 24.2034 80.7557 23.3027 80.1216 22.5406Z" fill="#BEBEBE"/>
</svg>
