<svg width="116" height="40" viewBox="0 0 116 40" fill="none" xmlns="http://www.w3.org/2000/svg">
<g clip-path="url(#clip0_4341_4865)">
<path fill-rule="evenodd" clip-rule="evenodd" d="M75 20C75 29.3888 67.3888 37 58 37C48.6111 37 41 29.3888 41 20C41 10.6111 48.6111 3 58 3C67.3888 3 75 10.6111 75 20Z" fill="#F2F2F2"/>
<path fill-rule="evenodd" clip-rule="evenodd" d="M74.1714 20C74.1714 28.9312 66.9313 36.1714 58 36.1714C49.0688 36.1714 41.8286 28.9312 41.8286 20C41.8286 11.0688 49.0688 3.82866 58 3.82866C66.9313 3.82866 74.1714 11.0688 74.1714 20Z" fill="#BEBEBE"/>
<path d="M71.8615 17.3037C71.8099 17.2868 71.7559 17.2779 71.7006 17.2779C71.6582 17.2779 71.6155 17.2832 71.5731 17.2941L66.3855 18.6242L63.9244 9.52289C63.8625 9.2938 63.6551 9.14273 63.4284 9.14273C63.3852 9.14273 63.3415 9.14819 63.2979 9.1596L48.4892 13.0334C48.216 13.1048 48.0515 13.3831 48.1207 13.6569L50.399 22.6771L45.3972 24.0059C45.1859 24.062 45.0332 24.2456 45.0164 24.4635C45.0142 24.4924 45.0144 24.521 45.017 24.5492C45.0295 24.7385 45.1463 24.9082 45.3238 24.9859L61.1132 31.8999C61.1798 31.9291 61.25 31.9431 61.3193 31.9431C61.476 31.9431 61.6287 31.8714 61.7284 31.7407L72.1173 18.1178C72.1875 18.0298 72.2296 17.9183 72.2296 17.797C72.2296 17.5637 72.0742 17.3667 71.8615 17.3037Z" fill="#F2F2F2"/>
<path fill-rule="evenodd" clip-rule="evenodd" d="M71.6928 17.8026L71.7008 17.7922L66.0217 19.2483L63.4281 9.65702L48.6194 13.5308L51.0222 23.0437L45.5293 24.5028L45.5465 24.5104L45.5302 24.5147L61.3196 31.4287L71.7151 17.7969L71.6928 17.8026Z" fill="#BEBEBE"/>
<path d="M71.4006 14.1656C71.3993 14.1606 71.3979 14.1556 71.3963 14.1507L71.3315 13.9359C71.3218 13.9036 71.3093 13.8722 71.2941 13.842L71.1677 13.5913C71.0701 13.3974 70.9586 13.2217 70.8362 13.0688C70.7146 12.917 70.5749 12.7754 70.4209 12.6481C70.4178 12.6456 70.4147 12.6431 70.4116 12.6406C70.0973 12.3914 69.7428 12.1962 69.357 12.0601C68.5638 11.7817 67.5905 11.7885 66.4643 12.0807C65.6218 12.2992 64.9076 12.636 64.3413 13.0815C63.7538 13.5438 63.3525 14.0536 63.1485 14.5965C63.1381 14.6242 63.128 14.6521 63.1184 14.68C62.9361 14.4843 62.7223 14.3176 62.4783 14.1813C62.0382 13.9355 61.5222 13.7974 60.951 13.7709C60.6343 13.7527 60.336 13.7605 60.0644 13.7942C59.8019 13.8266 59.4982 13.8873 59.1618 13.9746C58.5284 14.1389 57.9727 14.3628 57.5106 14.6402C57.4514 14.6757 57.3928 14.7126 57.3355 14.7505C57.2595 14.7827 57.1917 14.8306 57.1362 14.8902C56.8217 15.1241 56.5529 15.3914 56.3363 15.6861C55.9778 16.1732 55.7664 16.6932 55.7034 17.2401L54.4278 15.692C54.2837 15.5172 54.0515 15.4418 53.8323 15.4987L51.5196 16.0984C51.3085 16.1532 51.1456 16.3214 51.0977 16.5343L50.9035 17.3986C50.7839 17.3017 50.6518 17.2184 50.5072 17.149C50.1427 16.974 49.6966 16.8885 49.1815 16.8961C48.7197 16.8872 48.1727 16.9665 47.5182 17.1362L44.2076 17.9948C43.9019 18.074 43.7153 18.3826 43.7867 18.6901L44.9673 23.7693C45.0028 23.9222 45.0986 24.0543 45.2329 24.1356C45.3246 24.1911 45.429 24.2197 45.5344 24.2197C45.5833 24.2197 45.6324 24.2135 45.6806 24.2011L52.7334 22.372C52.9643 22.3121 53.1352 22.1176 53.165 21.8811L53.2088 21.5317L54.7053 21.1436L54.907 21.4242C55.0472 21.6192 55.293 21.7082 55.5259 21.6478L57.781 21.063C57.9735 21.0131 58.1272 20.8683 58.1886 20.6791C58.1936 20.664 58.1978 20.6487 58.2014 20.6333C58.8765 20.7703 59.6297 20.7328 60.4479 20.5207C61.108 20.3495 61.6639 20.0899 62.1016 19.7486L62.106 19.7458C62.2417 19.8404 62.4157 19.8761 62.5854 19.8319L64.0249 19.4586C64.3299 19.3795 64.5166 19.0721 64.4461 18.765C64.4461 18.765 64.7926 18.4834 65.066 18.5807C65.8664 18.8658 66.8504 18.8603 67.9902 18.5646C68.8265 18.3477 69.5389 18.0101 70.1074 17.5613C70.6999 17.0936 71.1071 16.554 71.3181 15.9576C71.5323 15.3525 71.5598 14.7496 71.4006 14.1656Z" fill="#F2F2F2"/>
<path d="M66.9814 13.9864C67.3277 13.8965 67.6229 13.9064 67.8592 14.0154C68.0959 14.1246 68.2833 14.3139 68.4163 14.578C68.6236 14.9893 68.6715 15.4135 68.559 15.8386C68.4484 16.2563 68.1371 16.5262 67.6072 16.6636C66.9459 16.8354 66.4847 16.6444 66.1978 16.08C65.9761 15.4234 65.961 14.9105 66.1525 14.5556C66.3001 14.2822 66.579 14.0908 66.9814 13.9865V13.9864ZM71.0119 14.2895L70.9471 14.0748L70.8142 13.8076C70.7314 13.6434 70.6382 13.496 70.537 13.3696C70.4355 13.2431 70.319 13.1252 70.189 13.0178C69.9165 12.8018 69.6088 12.6324 69.2742 12.5143C68.5729 12.2682 67.694 12.279 66.6618 12.5467C65.8841 12.7484 65.2293 13.0556 64.7157 13.4597C64.1983 13.8669 63.8485 14.3063 63.6759 14.7657C63.5031 15.2256 63.4671 15.7192 63.5689 16.2328L63.721 16.6697L63.7854 16.8622L63.7909 16.8755C64.0811 17.4518 64.5902 17.8728 65.304 18.1269C65.6452 18.2484 66.0282 18.3091 66.4505 18.3091C66.9047 18.3091 67.4044 18.2388 67.9458 18.0984C68.7171 17.8983 69.3697 17.5904 69.8855 17.1832C70.4055 16.7728 70.7605 16.3064 70.9407 15.7969C71.1215 15.286 71.1458 14.7797 71.0119 14.2895Z" fill="#393B43"/>
<path d="M47.2969 20.1608L47.0259 19.1309C47.0259 19.1309 47.5368 18.9963 47.8429 18.9142C48.2831 18.796 48.6136 18.7677 48.7822 19.0374C48.8625 19.166 48.87 19.4548 48.7541 19.5978C48.6281 19.7533 48.4643 19.8428 48.1741 19.9332C47.9578 20.0007 47.2969 20.1608 47.2969 20.1608ZM54.3643 19.598L52.9198 19.9727L53.2158 17.9489L54.3643 19.598ZM60.0922 16.82L60.3604 17.9542L61.3714 17.6642C61.3178 17.8249 61.2018 18.0666 61.0571 18.1961C60.8893 18.3463 60.6385 18.4709 60.4105 18.5301C59.6713 18.7218 59.1793 18.5532 58.9055 18.0151C58.6649 17.3431 58.6397 16.8191 58.8306 16.4578C58.9758 16.1829 59.2548 15.9903 59.6598 15.8853C60.2282 15.7379 60.625 15.8355 60.8727 16.1836L60.9129 16.2401L63.2503 15.6338L63.1807 15.4961C62.9882 15.1139 62.6986 14.8129 62.3202 14.6016C61.9458 14.3926 61.5014 14.2748 61.0002 14.2515C60.7126 14.235 60.4432 14.2419 60.2001 14.272C59.9585 14.3018 59.6757 14.3586 59.3595 14.4405C58.7708 14.5932 58.2578 14.7994 57.8349 15.0531C57.4088 15.3088 57.0609 15.6178 56.801 15.9714C56.2912 16.6639 56.1298 17.4332 56.3209 18.2575L56.3835 18.5325L56.5319 18.8552C56.5607 18.9124 56.5916 18.9679 56.6244 19.0217L54.0921 15.9486L51.6579 16.5798L51.1991 18.6208C51.1647 18.4888 51.1206 18.3691 51.0676 18.264C50.9138 17.9587 50.681 17.7296 50.3756 17.583C50.0765 17.4395 49.6992 17.37 49.2593 17.3776C48.8419 17.3688 48.3235 17.4446 47.7159 17.6022L44.3103 18.4854L45.5364 23.7607L47.9964 23.1228L47.6219 21.5394L48.6877 21.2629C49.7219 20.9947 50.446 20.6209 50.8564 20.145L50.3227 22.5196L52.7554 21.8886L52.8486 21.1474L54.9804 20.5945L55.415 21.1988L57.8896 20.5571L57.0255 19.5085C57.2914 19.7515 57.6226 19.9383 58.0165 20.0671C58.7029 20.2916 59.5062 20.2871 60.4037 20.0544C61.2277 19.8407 61.8576 19.4834 62.2787 18.9912L62.4596 19.3869L64.0755 18.9678L63.3873 15.9654L60.0922 16.82Z" fill="#393B43"/>
<path d="M56.5944 27.0542C56.4311 27.0542 56.2745 26.9176 56.2517 26.7367C56.2266 26.537 56.2859 26.3494 56.3556 26.1686C56.6168 25.4906 56.9943 24.8867 57.5334 24.3934C57.6428 24.2932 57.7722 24.2129 57.8992 24.1347C57.9698 24.0912 58.0417 24.0599 58.111 24.0599C58.1795 24.0599 58.2455 24.0905 58.305 24.1698C58.3651 24.1192 58.4282 24.0945 58.4908 24.0945C58.5507 24.0945 58.6101 24.1172 58.6657 24.1618C58.7328 24.2156 58.7206 24.2816 58.6919 24.3471C58.5491 24.6722 58.3987 24.9941 58.2642 25.3225C58.2016 25.4752 58.1687 25.6402 58.1235 25.7999C58.1202 25.8116 58.1266 25.8259 58.1312 25.8583C58.2004 25.7928 58.2659 25.7412 58.319 25.679C58.7242 25.2048 59.1272 24.729 59.53 24.2529C59.6025 24.1672 59.6596 24.0645 59.7437 23.9932C60.0952 23.6949 60.4377 23.378 60.9142 23.2853C60.9398 23.2803 60.9664 23.2782 60.9926 23.2782C60.9935 23.2782 60.9943 23.2782 60.9952 23.2782C61.2095 23.2795 61.3211 23.4028 61.285 23.6128C61.2336 23.9125 61.0513 24.1244 60.7989 24.2759C60.698 24.3364 60.5827 24.3762 60.4695 24.4107C60.4637 24.4125 60.4576 24.4132 60.4513 24.4132C60.4152 24.4132 60.3713 24.3879 60.3319 24.3772C60.3478 24.3378 60.3562 24.2927 60.3809 24.2599C60.4876 24.1186 60.6023 23.9833 60.7063 23.8401C60.7324 23.8043 60.7297 23.7476 60.7273 23.6954C60.5233 23.7689 60.3661 23.8907 60.2278 24.0377C59.905 24.3807 59.6866 24.7812 59.5833 25.2412C59.5636 25.3293 59.5604 25.4243 59.5682 25.5145C59.5755 25.5982 59.6137 25.6378 59.6785 25.6378C59.6989 25.6378 59.7219 25.6339 59.7474 25.6262C60.1204 25.514 60.4324 25.2969 60.6892 25.0154C61.1048 24.5596 61.502 24.0868 61.899 23.6145C61.974 23.5253 62.0103 23.4041 62.0673 23.2991C62.1904 23.0721 62.3571 23.0228 62.5628 23.0228C62.5832 23.0228 62.6041 23.0232 62.6253 23.0241C62.7246 23.0281 62.6998 23.0973 62.6714 23.1587C62.5597 23.4003 62.4325 23.6364 62.3421 23.8858C62.2498 24.1406 62.1937 24.4086 62.1226 24.6711C62.1164 24.6939 62.1099 24.7195 62.1143 24.7417C62.1227 24.7837 62.1274 24.8417 62.1553 24.8601C62.1621 24.8646 62.1712 24.8664 62.1816 24.8664C62.2101 24.8664 62.2486 24.8524 62.275 24.8389C62.3225 24.8144 62.3681 24.7807 62.4048 24.7418C62.8093 24.3125 63.2134 23.8828 63.6132 23.4493C63.6615 23.3968 63.6967 23.3244 63.7168 23.2551C64.0868 21.9811 64.8759 20.8007 65.9142 19.9715C66.0057 19.8984 66.0802 19.8622 66.1513 19.8622C66.2306 19.8622 66.3057 19.9072 66.3953 19.9964C66.4606 20.0614 66.4724 20.1335 66.4401 20.2112C66.3342 20.4661 66.1429 20.8488 66.016 21.0931C65.6188 21.8574 65.1057 22.5428 64.5493 23.1973C64.439 23.3271 64.328 23.4577 64.2321 23.5979C64.1273 23.7509 64.0708 23.9226 64.1238 24.1119C64.1535 24.2179 64.196 24.2697 64.2594 24.2697C64.2981 24.2697 64.3446 24.2503 64.4008 24.2122C64.7057 24.0052 64.9521 23.7345 65.1875 23.4565C65.5578 23.0192 65.9155 22.5712 66.2785 22.1277C66.2999 22.1016 66.321 22.0753 66.3471 22.0432C66.4481 22.1177 66.4681 22.1735 66.4109 22.264C65.9204 23.0404 65.4337 23.8204 64.8122 24.5025C64.7068 24.6182 64.5753 24.7218 64.4363 24.7927C64.3214 24.8513 64.2172 24.8803 64.1238 24.8803C63.9238 24.8803 63.774 24.7472 63.678 24.4875C63.6279 24.3519 63.5963 24.2095 63.5552 24.0662C63.4961 24.1486 63.4363 24.2425 63.3662 24.3282C63.1223 24.626 62.8804 24.9259 62.6266 25.2151C62.4974 25.3624 62.3213 25.4429 62.1234 25.462C62.1016 25.4641 62.0804 25.4652 62.0599 25.4652C61.8497 25.4652 61.7047 25.3553 61.6254 25.1448C61.5705 24.9992 61.5705 24.8513 61.5931 24.7013C61.6061 24.6145 61.6235 24.5283 61.6442 24.4119C61.5611 24.5181 61.4964 24.6021 61.4301 24.6849C61.0951 25.1039 60.7443 25.5085 60.3135 25.8331C60.1731 25.9388 60.0202 26.0331 59.8613 26.108C59.7372 26.1666 59.6273 26.1937 59.5315 26.1937C59.2616 26.1937 59.1025 25.979 59.0475 25.6461C59.0349 25.5696 59.0345 25.4912 59.0273 25.3981C58.8876 25.5899 58.7619 25.7757 58.6223 25.9505C58.4608 26.1526 58.296 26.3537 58.1161 26.539C58.0503 26.6068 57.984 26.6396 57.9236 26.6396C57.8372 26.6396 57.7626 26.5726 57.7179 26.445C57.6743 26.3208 57.6589 26.1866 57.6321 26.0566C57.6221 26.008 57.6158 25.9586 57.6077 25.9095C57.5912 25.9026 57.5746 25.8956 57.558 25.8887C57.5469 25.931 57.5459 25.98 57.5231 26.0147C57.3511 26.2766 57.1797 26.5391 56.9973 26.7936C56.9414 26.8716 56.8544 26.9287 56.777 26.9894C56.7199 27.0343 56.6567 27.0542 56.5944 27.0542ZM58.1519 24.4885C58.0728 24.5383 57.9847 24.5779 57.9162 24.6395C57.4673 25.0426 57.1634 25.5432 56.9517 26.1033C56.9362 26.1444 56.9368 26.1917 56.9299 26.236C56.9419 26.2418 56.954 26.2476 56.9659 26.2534C57.4325 25.721 57.7849 25.1076 58.1787 24.5235C58.1698 24.5118 58.1609 24.5002 58.1519 24.4885ZM65.7592 20.5951C65.2223 21.2528 64.7949 21.9764 64.4652 22.7595C64.6911 22.6749 65.7586 20.8885 65.7592 20.5951Z" fill="#393B43"/>
<path d="M53.751 27.5679C53.5857 27.5616 53.4174 27.5253 53.2896 27.4001C53.2476 27.359 53.2413 27.2694 53.2392 27.2013C53.2237 26.7061 53.3783 26.2535 53.6031 25.8218C53.6466 25.7383 53.6454 25.6826 53.5763 25.6201C53.5241 25.5729 53.4784 25.5177 53.4342 25.4627C53.3513 25.3596 53.3612 25.2611 53.4763 25.1951C53.6262 25.1093 53.7822 25.0327 53.9406 24.964C54.0525 24.9155 54.1331 24.845 54.2011 24.7437C54.4715 24.3409 54.748 23.942 55.025 23.5437C55.0832 23.4599 55.153 23.3843 55.2174 23.3049C55.2143 23.2984 55.2112 23.2919 55.2082 23.2853C55.1657 23.2966 55.1219 23.3042 55.081 23.3197C54.6707 23.4751 54.2634 23.6389 53.85 23.7856C53.6207 23.867 53.3837 23.9308 53.1459 23.9824C53.1205 23.9879 53.0952 23.9907 53.0703 23.9907C52.9661 23.9907 52.8688 23.9425 52.7974 23.8487C52.7076 23.7307 52.7022 23.6376 52.8092 23.5374C52.9296 23.4245 53.0608 23.3201 53.1991 23.2298C53.3792 23.1123 53.5696 23.01 53.7585 22.9065C53.8046 22.8813 53.8621 22.8771 53.9412 22.8561C53.9128 22.9235 53.8961 22.9633 53.8726 23.0191C54.0381 22.9422 54.1909 22.8691 54.3453 22.7998C55.0471 22.4848 55.7618 22.2042 56.5107 22.0217C56.8349 21.9426 57.1629 21.8878 57.4979 21.8878C57.5398 21.8878 57.5818 21.8886 57.6239 21.8904C57.9059 21.9023 58.1541 22.0039 58.3891 22.1484C58.4135 22.1635 58.4289 22.1932 58.4485 22.2161C58.4246 22.2344 58.4033 22.2612 58.3762 22.2697C58.2073 22.3229 58.0366 22.3705 57.8674 22.4229C57.1908 22.6323 56.5143 22.842 55.8384 23.0538C55.7444 23.0833 55.6541 23.1249 55.5494 23.1658C55.7219 23.2789 55.7222 23.289 55.6194 23.4488C55.4047 23.7825 55.192 24.1174 54.9788 24.4521C54.9699 24.4661 54.9648 24.4828 54.9442 24.5289C55.0557 24.4921 55.1433 24.4633 55.2308 24.4343C55.5606 24.3251 55.891 24.2168 56.2415 24.199C56.2576 24.1982 56.2738 24.1978 56.29 24.1978C56.3617 24.1978 56.4342 24.2054 56.5045 24.2179C56.562 24.2281 56.6292 24.248 56.6674 24.2875C56.7257 24.3476 56.7628 24.4285 56.8089 24.5005C56.7525 24.5319 56.6984 24.5688 56.6394 24.5938C55.9788 24.8742 55.3172 25.1524 54.6563 25.4321C54.4812 25.5062 54.366 25.6305 54.3006 25.8146C54.1773 26.1613 54.0375 26.5022 53.9079 26.8468C53.8643 26.9625 53.8216 27.0801 53.7951 27.2004C53.7698 27.3157 53.7659 27.4358 53.751 27.5679Z" fill="#393B43"/>
<path d="M58.2665 23.6951C58.2405 23.6951 58.2154 23.6895 58.2038 23.6778C58.1759 23.6495 58.1643 23.584 58.1757 23.5429C58.1913 23.4866 58.2286 23.4326 58.2677 23.3872C58.5271 23.086 58.725 22.7532 58.8202 22.3631C58.8458 22.2584 58.9195 22.1969 59.0031 22.1969C59.0456 22.1969 59.0908 22.2129 59.1335 22.2472C59.2137 22.3117 59.2658 22.4113 59.3369 22.5035C59.3204 22.6044 59.3184 22.6963 59.2893 22.7785C59.2088 23.0062 59.0585 23.19 58.8698 23.3338C58.7004 23.4628 58.5147 23.571 58.3316 23.6808C58.3159 23.6902 58.2908 23.6951 58.2665 23.6951Z" fill="#393B43"/>
<path d="M62.7056 22.377C62.6216 22.377 62.5636 22.3265 62.5687 22.2435C62.5754 22.132 62.5969 22.0095 62.6524 21.9158C62.7234 21.796 62.8299 21.6952 62.9307 21.5958C62.9681 21.5589 63.0098 21.5377 63.0539 21.5377C63.0907 21.5377 63.1292 21.5526 63.168 21.5858C63.2587 21.6634 63.2824 21.727 63.2365 21.8369C63.1565 22.0281 63.046 22.1979 62.8704 22.3165C62.837 22.3391 62.7992 22.3554 62.7824 22.3644C62.7553 22.3729 62.7294 22.377 62.7056 22.377Z" fill="#393B43"/>
<path d="M56.7731 26.0747C56.7611 26.0689 56.7491 26.0631 56.7371 26.0574C56.744 26.0129 56.7433 25.9657 56.7589 25.9246C56.9705 25.3645 57.2745 24.8639 57.7233 24.4607C57.7918 24.3992 57.88 24.3596 57.959 24.3098C57.968 24.3215 57.9769 24.3332 57.9859 24.3448C57.5921 24.9288 57.2397 25.5424 56.7731 26.0747ZM65.5663 20.4165C65.5657 20.7098 64.4982 22.4961 64.2723 22.5807C64.602 21.7977 65.0294 21.0741 65.5663 20.4165ZM64.0392 23.4192C64.1352 23.279 64.2461 23.1484 64.3564 23.0186C64.9129 22.3641 65.426 21.6787 65.8231 20.9143C65.9501 20.6701 66.1414 20.2874 66.2472 20.0325C66.2795 19.9548 66.2677 19.8827 66.2025 19.8177C66.0325 19.6486 65.9149 19.6382 65.7213 19.7928C64.6831 20.622 63.8939 21.8024 63.524 23.0764C63.5038 23.1457 63.4687 23.2181 63.4204 23.2705C63.0205 23.7041 62.6164 24.1338 62.2119 24.563C62.1753 24.6019 62.1297 24.6358 62.0821 24.6602C62.0461 24.6787 61.9876 24.698 61.9625 24.6815C61.9345 24.663 61.9298 24.605 61.9214 24.563C61.917 24.5408 61.9235 24.5152 61.9297 24.4924C62.0009 24.2299 62.0569 23.9619 62.1493 23.7071C62.2396 23.4577 62.3668 23.2216 62.4785 22.98C62.5069 22.9186 62.5318 22.8494 62.4325 22.8454C62.1979 22.836 62.0097 22.8709 61.8744 23.1204C61.8174 23.2254 61.7811 23.3466 61.7062 23.4358C61.3091 23.9081 60.912 24.3809 60.4963 24.8367C60.2396 25.1182 59.9275 25.3353 59.5545 25.4475C59.4478 25.4796 59.3849 25.4458 59.3754 25.3358C59.3675 25.2456 59.3707 25.1506 59.3905 25.0625C59.4938 24.6026 59.7122 24.202 60.035 23.859C60.1733 23.712 60.3305 23.5902 60.5344 23.5168C60.5369 23.5689 60.5395 23.6256 60.5135 23.6614C60.4094 23.8045 60.2947 23.9399 60.1881 24.0812C60.1633 24.114 60.1549 24.1591 60.139 24.1986C60.1853 24.211 60.2377 24.2439 60.2766 24.232C60.3898 24.1975 60.5052 24.1578 60.606 24.0972C60.8584 23.9457 61.0407 23.7338 61.0922 23.4342C61.1282 23.2241 61.0167 23.1008 60.8023 23.0995C60.7753 23.0993 60.7477 23.1014 60.7213 23.1066C60.2448 23.1993 59.9023 23.5162 59.5509 23.8145C59.4667 23.8858 59.4097 23.9885 59.3371 24.0742C58.9343 24.5502 58.5313 25.0262 58.1262 25.5003C58.073 25.5625 58.0075 25.6141 57.9383 25.6796C57.9337 25.6472 57.9274 25.6329 57.9307 25.6212C57.9759 25.4614 58.0088 25.2965 58.0713 25.1438C58.2058 24.8154 58.3563 24.4935 58.499 24.1684C58.5278 24.1029 58.5399 24.0369 58.4729 23.9831C58.3592 23.892 58.2298 23.892 58.1121 23.9911C57.9925 23.8315 57.8467 23.8695 57.7064 23.9559C57.5793 24.0342 57.45 24.1146 57.3405 24.2147C56.8014 24.708 56.4239 25.3119 56.1627 25.9899C56.0931 26.1707 56.0337 26.3583 56.0589 26.558C56.0903 26.8079 56.3772 26.9733 56.5842 26.8107C56.6615 26.75 56.7485 26.6929 56.8044 26.6149C56.9868 26.3604 57.1583 26.0979 57.3302 25.836C57.353 25.8013 57.3541 25.7523 57.3652 25.7099C57.3817 25.7169 57.3983 25.7239 57.4149 25.7308C57.4229 25.7799 57.4292 25.8293 57.4393 25.8779C57.466 26.0079 57.4814 26.1421 57.525 26.2664C57.6011 26.4834 57.7634 26.5248 57.9232 26.3603C58.1032 26.175 58.2679 25.9739 58.4294 25.7718C58.569 25.597 58.6947 25.4112 58.8344 25.2194C58.8417 25.3125 58.8421 25.3909 58.8547 25.4674C58.9291 25.9185 59.195 26.1527 59.6685 25.9294C59.8273 25.8544 59.9803 25.7601 60.1207 25.6544C60.5514 25.3299 60.9022 24.9252 61.2372 24.5063C61.3035 24.4234 61.3682 24.3394 61.4514 24.2332C61.4306 24.3496 61.4133 24.4358 61.4002 24.5227C61.3776 24.6726 61.3777 24.8205 61.4325 24.9661C61.5196 25.1972 61.6858 25.307 61.9305 25.2834C62.1284 25.2642 62.3045 25.1837 62.4338 25.0364C62.6875 24.7471 62.9295 24.4473 63.1733 24.1495C63.2434 24.0638 63.3033 23.9699 63.3623 23.8875C63.4035 24.0308 63.435 24.1732 63.4851 24.3088C63.6259 24.6897 63.8824 24.7981 64.2435 24.614C64.3824 24.5431 64.514 24.4395 64.6194 24.3238C65.2408 23.6417 65.7275 22.8618 66.2181 22.0853C66.2753 21.9948 66.2553 21.939 66.1543 21.8645C66.1282 21.8966 66.107 21.9229 66.0856 21.949C65.7226 22.3925 65.365 22.8405 64.9947 23.2778C64.7592 23.5559 64.5128 23.8265 64.2079 24.0335C64.0598 24.134 63.9788 24.1039 63.931 23.9332C63.8779 23.7439 63.9345 23.5722 64.0392 23.4192Z" fill="#F2F2F2"/>
<path d="M56.616 24.322C56.5699 24.25 56.5329 24.1691 56.4746 24.109C56.4363 24.0696 56.3691 24.0497 56.3116 24.0394C56.2254 24.0241 56.1359 24.0161 56.0486 24.0205C55.6981 24.0383 55.3678 24.1466 55.038 24.2558C54.9504 24.2848 54.8628 24.3136 54.7513 24.3504C54.7719 24.3043 54.777 24.2877 54.786 24.2736C54.9991 23.9389 55.2119 23.604 55.4265 23.2703C55.5294 23.1105 55.5291 23.1004 55.3566 22.9873C55.4613 22.9464 55.5515 22.9048 55.6456 22.8753C56.3214 22.6636 56.9979 22.4538 57.6745 22.2444C57.8437 22.192 58.0145 22.1444 58.1834 22.0912C58.2104 22.0827 58.2317 22.056 58.2556 22.0377C58.2361 22.0147 58.2206 21.985 58.1962 21.9699C57.9612 21.8254 57.713 21.7238 57.431 21.7119C57.0522 21.696 56.6825 21.7543 56.3178 21.8432C55.5689 22.0257 54.8542 22.3063 54.1525 22.6213C53.998 22.6906 53.8453 22.7637 53.6797 22.8406C53.7032 22.7848 53.72 22.745 53.7483 22.6776C53.6693 22.6986 53.6117 22.7028 53.5657 22.728C53.3767 22.8315 53.1864 22.9338 53.0062 23.0514C52.868 23.1416 52.7368 23.246 52.6163 23.3589C52.5093 23.4591 52.5147 23.5523 52.6045 23.6702C52.693 23.7864 52.8211 23.8325 52.953 23.8039C53.1909 23.7523 53.4278 23.6885 53.6571 23.6071C54.0705 23.4604 54.4778 23.2967 54.8881 23.1412C54.929 23.1257 54.9729 23.1181 55.0153 23.1068C55.0184 23.1133 55.0214 23.1199 55.0245 23.1264C54.9601 23.2058 54.8904 23.2815 54.8321 23.3652C54.5552 23.7636 54.2787 24.1624 54.0082 24.5652C53.9402 24.6665 53.8596 24.737 53.7478 24.7855C53.5893 24.8542 53.4333 24.9308 53.2835 25.0166C53.1684 25.0826 53.1584 25.1811 53.2413 25.2842C53.2856 25.3393 53.3313 25.3943 53.3835 25.4415C53.4526 25.5041 53.4537 25.5598 53.4103 25.6433C53.1855 26.075 53.0309 26.5276 53.0463 27.0229C53.0484 27.0909 53.0548 27.1805 53.0968 27.2216C53.2245 27.3468 53.3929 27.3831 53.5582 27.3894C53.5731 27.2573 53.5769 27.1373 53.6023 27.0219C53.6288 26.9016 53.6715 26.7841 53.715 26.6683C53.8447 26.3237 53.9844 25.9829 54.1077 25.6361C54.1732 25.4521 54.2883 25.3277 54.4634 25.2536C55.1244 24.974 55.7859 24.6957 56.4465 24.4153C56.5056 24.3903 56.5596 24.3534 56.616 24.322Z" fill="#F2F2F2"/>
<path d="M57.9828 23.3644C57.9715 23.4055 57.983 23.471 58.011 23.4993C58.0332 23.5219 58.1061 23.5219 58.1387 23.5023C58.3218 23.3925 58.5075 23.2843 58.6769 23.1553C58.8656 23.0115 59.0159 22.8278 59.0964 22.6C59.1255 22.5177 59.1275 22.4259 59.1441 22.325C59.0729 22.2328 59.0209 22.1332 58.9406 22.0687C58.8141 21.967 58.6659 22.0266 58.6274 22.1846C58.5322 22.5747 58.3342 22.9075 58.0748 23.2087C58.0357 23.2541 57.9984 23.3081 57.9828 23.3644Z" fill="#F2F2F2"/>
<path d="M62.5895 22.186C62.6064 22.1769 62.6441 22.1607 62.6776 22.138C62.8532 22.0194 62.9636 21.8496 63.0436 21.6583C63.0896 21.5484 63.0659 21.4849 62.9752 21.4073C62.8901 21.3344 62.8065 21.3496 62.7379 21.4174C62.6371 21.5166 62.5306 21.6175 62.4596 21.7373C62.4041 21.831 62.3825 21.9535 62.3758 22.0649C62.3694 22.1715 62.4666 22.2244 62.5895 22.186Z" fill="#F2F2F2"/>
</g>
<defs>
<clipPath id="clip0_4341_4865">
<rect width="34" height="34" fill="white" transform="translate(41 3)"/>
</clipPath>
</defs>
</svg>
