<svg width="70" height="16" viewBox="0 0 70 16" fill="none" xmlns="http://www.w3.org/2000/svg">
<path d="M26.4234 0.388741C25.2802 0.790828 25.1056 2.45163 26.1354 3.08098C26.5019 3.29951 27.3135 3.31699 27.7498 3.1072C28.4392 2.78379 28.7185 1.63871 28.2734 0.97439C27.9069 0.414964 27.0866 0.161474 26.4234 0.388741Z" fill="#BEBEBE"/>
<path d="M3.34132 3.8764C1.90141 3.99877 0.871662 4.48827 0.400421 5.25748C0.199707 5.56342 0.199707 5.61587 0.199707 8.50041C0.199707 11.6472 0.208434 11.6909 0.662222 12.0318C0.941476 12.2416 1.98868 12.329 2.59955 12.1979L2.94862 12.1192L2.99225 9.2871L3.03588 6.44627L3.38495 6.27144C3.65548 6.14033 3.96091 6.09662 4.70268 6.0704L5.67134 6.03544L5.76734 5.75572C5.92442 5.32741 5.89824 4.73302 5.70625 4.42709C5.41827 3.94633 4.61541 3.76277 3.34132 3.8764Z" fill="#BEBEBE"/>
<path d="M9.01358 3.85884C7.76567 3.9987 7.00644 4.40953 6.88427 5.01266C6.82318 5.34482 6.95408 5.87802 7.16352 6.14899L7.32933 6.3413L8.01874 6.15774C8.94377 5.92173 9.64191 5.86054 10.279 5.96543C10.9247 6.07032 11.2302 6.28011 11.2651 6.64723C11.3 6.96191 11.3523 6.94443 9.71172 7.10177C7.9402 7.27659 7.13734 7.61749 6.68356 8.39544C6.45666 8.77131 6.43921 8.88494 6.43921 9.68037C6.43921 10.5283 6.44794 10.572 6.72719 11.009C6.893 11.2625 7.19843 11.5859 7.4166 11.7258C8.79542 12.6436 12.0592 12.5911 13.3769 11.6384C14.0663 11.1401 14.0751 11.0964 14.0751 8.67516C14.0751 6.28885 14.0053 5.79061 13.5515 5.13503C13.2286 4.66302 12.5566 4.23471 11.8323 4.03366C11.1778 3.8501 9.82517 3.76269 9.01358 3.85884ZM11.2302 8.81501C11.3349 8.85872 11.3698 8.99857 11.3698 9.47059C11.3698 10.1874 11.2913 10.2573 10.3662 10.3185C9.83389 10.3447 9.72045 10.3272 9.44992 10.1437C9.12703 9.92512 9.05722 9.7503 9.13576 9.4094C9.2143 9.11221 9.64191 8.9199 10.4099 8.84998C10.7676 8.81501 11.0731 8.78005 11.0818 8.77131C11.0905 8.77131 11.1516 8.78879 11.2302 8.81501Z" fill="#BEBEBE"/>
<path d="M18.8313 3.8328C17.7056 3.9377 16.4053 4.45342 16.065 4.94291L15.8643 5.22263L15.8381 9.72426C15.8206 12.8623 15.8381 14.3308 15.9079 14.5581C15.9864 14.8378 16.0737 14.9252 16.414 15.0738C16.7544 15.2311 16.9289 15.2486 17.6271 15.2049C18.0721 15.1787 18.4735 15.135 18.5259 15.1C18.5783 15.065 18.6132 14.5144 18.6132 13.6228V12.198L18.9884 12.2679C19.5818 12.3815 20.629 12.3553 21.1875 12.2155C23.0114 11.7347 24.111 10.1701 24.111 8.05473C24.1023 5.86072 23.0638 4.43593 21.1439 3.97266C20.6901 3.86777 19.3462 3.78036 18.8313 3.8328ZM20.0531 6.06177C20.8472 6.28029 21.1265 6.7086 21.205 7.81872C21.2835 8.93757 20.9694 9.65434 20.2276 9.99524C19.8262 10.1788 19.4248 10.205 18.9535 10.0564L18.6132 9.96027V8.09843V6.23659L19.0321 6.10547C19.5469 5.94813 19.6167 5.93939 20.0531 6.06177Z" fill="#BEBEBE"/>
<path d="M33.2302 3.83295C31.9648 3.97281 30.7867 4.46231 30.4202 5.00425L30.2195 5.2927V9.87301C30.2195 14.8554 30.2108 14.7942 30.7082 15.0564C30.9613 15.1963 32.567 15.24 32.8637 15.1264C32.9946 15.0652 33.012 14.9166 33.012 13.6666V12.2681L33.9982 12.3205C35.4555 12.3992 36.3456 12.1282 37.1834 11.359C37.9862 10.616 38.3877 9.70693 38.4837 8.41326C38.6408 6.13184 37.5935 4.51475 35.63 3.99903C35.1326 3.86791 33.7974 3.7805 33.2302 3.83295ZM34.8446 6.21925C35.6737 6.64756 35.9093 8.49192 35.2548 9.47092C35.0192 9.8293 34.3996 10.1615 33.9632 10.1615C33.6054 10.1615 33.0818 10.0041 32.9946 9.86427C32.9597 9.81182 32.9248 8.99016 32.9248 8.04613C32.9248 6.16681 32.8986 6.25422 33.492 6.0794C33.9109 5.95702 34.4345 6.00947 34.8446 6.21925Z" fill="#BEBEBE"/>
<path d="M42.2187 3.85895C40.4646 4.04251 39.7229 4.70683 40.1156 5.74702C40.3425 6.32393 40.421 6.36763 41.0668 6.18407C42.8296 5.68583 44.3567 5.89561 44.4266 6.64734C44.444 6.80468 44.444 6.92706 44.4266 6.92706C43.999 6.92706 41.4071 7.30292 41.1279 7.40781C40.1505 7.75746 39.6531 8.36933 39.5832 9.3221C39.4873 10.4672 39.7927 11.2102 40.5781 11.7259C41.3635 12.2504 42.8121 12.4951 44.252 12.3465C45.5523 12.2066 46.3552 11.9007 46.9311 11.2976L47.1929 11.0266V8.51793C47.1929 6.02673 47.1929 6.00925 46.9748 5.5722C46.7217 5.05647 46.2417 4.54949 45.7705 4.31349C44.9938 3.92014 43.4928 3.72784 42.2187 3.85895ZM44.5138 9.28714C44.5575 9.99516 44.4964 10.135 44.1124 10.2399C43.6761 10.371 42.9605 10.3535 42.6987 10.2224C42.402 10.0738 42.2187 9.72419 42.2972 9.43574C42.3758 9.11232 42.7859 8.92876 43.5713 8.85009C44.5226 8.75393 44.4876 8.73645 44.5138 9.28714Z" fill="#BEBEBE"/>
<path d="M52.167 3.83274C50.3606 4.09497 49.2611 4.93411 48.7985 6.39386C48.5629 7.16308 48.5629 8.71024 48.7985 9.40078C49.3047 10.8518 50.1163 11.5161 51.6958 11.7434C52.3329 11.8395 52.5423 11.8308 53.1357 11.7172C53.511 11.6385 53.86 11.6035 53.9037 11.6472C53.9473 11.6909 53.9473 11.9007 53.9211 12.1192C53.764 13.1507 52.1583 13.5178 50.4479 12.9147C49.6014 12.6175 49.6014 12.6175 49.4007 12.8797C48.8858 13.5615 49.1389 14.6017 49.9243 15.0038C50.7359 15.4146 52.7343 15.537 53.8949 15.2398C55.1167 14.9251 55.7886 14.4269 56.2424 13.5003L56.5304 12.9147L56.5566 9.16477L56.5828 5.41487L56.3646 5.08271C56.0853 4.66314 55.5094 4.32224 54.6367 4.06875C53.9822 3.87644 52.6994 3.75407 52.167 3.83274ZM53.6331 6.13163L53.8688 6.22778V7.83614V9.45323L53.3801 9.60183C52.5859 9.82909 51.8878 9.56686 51.5649 8.91128C51.3729 8.51794 51.338 7.4865 51.4951 7.00574C51.7656 6.20156 52.7605 5.79947 53.6331 6.13163Z" fill="#BEBEBE"/>
<path d="M61.6792 3.83287C59.8902 4.08636 58.6685 5.08284 58.171 6.68245C57.9703 7.30306 57.9703 8.89393 58.171 9.53203C58.555 10.7907 59.4277 11.7173 60.6145 12.1369C61.2167 12.3466 62.3511 12.4428 63.0493 12.3466C64.8295 12.0757 65.9029 11.219 66.4439 9.63692C66.7145 8.824 66.7232 7.38173 66.4439 6.5863C65.9727 5.24018 65.1088 4.40978 63.7387 3.99021C63.3198 3.86783 62.1155 3.77168 61.6792 3.83287ZM62.6915 6.06183C63.0754 6.19295 63.3547 6.44644 63.5816 6.88349C63.8608 7.42544 63.8434 8.74533 63.5467 9.33972C63.2413 9.96034 62.866 10.1876 62.2115 10.1439C61.7315 10.1089 61.6704 10.074 61.365 9.73307C60.4574 8.71037 60.8065 6.38525 61.9235 6.06183C62.3075 5.9482 62.3511 5.9482 62.6915 6.06183Z" fill="#BEBEBE"/>
<path d="M25.795 4.12992L25.5943 4.20859V7.84486C25.5943 11.9706 25.5768 11.8745 26.2488 12.128C26.5542 12.2503 26.816 12.2766 27.4356 12.2416C27.8719 12.2154 28.2646 12.1542 28.3083 12.1105C28.3606 12.058 28.3868 10.6507 28.3694 8.35184C28.3432 4.82046 28.3345 4.66312 28.1687 4.47956C27.8545 4.12992 27.5665 4.04251 26.7549 4.05125C26.336 4.05125 25.8997 4.08621 25.795 4.12992Z" fill="#BEBEBE"/>
<path d="M67.5175 10.0476C67.0113 11.6123 66.2259 12.4776 64.8035 13.0108C64.4719 13.1332 63.9483 13.2556 63.5992 13.2731C62.4996 13.3517 62.5956 13.2294 62.5956 14.5493V15.6943L63.4508 15.6419C64.7162 15.5807 65.8245 15.2485 66.863 14.6367C67.4389 14.3045 68.3291 13.4916 68.7218 12.9584C69.2454 12.2329 69.9348 10.5721 69.7777 10.4235C69.6992 10.3448 67.9102 9.89903 67.7007 9.89903C67.6222 9.89903 67.5437 9.96895 67.5175 10.0476Z" fill="#F2F2F2"/>
</svg>
